<svg xmlns="http://www.w3.org/2000/svg" viewBox="0 0 368.77 46.68"><defs><style>.cls-1,.cls-3{fill:#f1bf64;}.cls-1{stroke:#f0be64;stroke-width:0.25px;}.cls-1,.cls-5,.cls-6,.cls-7{stroke-miterlimit:10;}.cls-2{fill:#3d82bf;}.cls-4{fill:#3c82bf;}.cls-5,.cls-6,.cls-7{fill:none;stroke:#3c82bf;}.cls-5,.cls-6{stroke-width:1.08px;}.cls-6{stroke-linecap:round;}.cls-7{stroke-width:1.54px;}</style></defs><g id="Layer_5" data-name="Layer 5"><path class="cls-1" d="M355.28,30.17,352.37,6.79H365l-3,23.38Zm7.27,11.37h-7.71V33.83h7.71Z"/><path class="cls-2" d="M5.1,7.13H32.63V15.3H16v5.85H30.3V29H16V41.2H5.1Z"/><path class="cls-2" d="M80.91,7.13H91.85V32.48h17.48V41.2H80.91Z"/><path class="cls-2" d="M116.76,7.13h10.95V32.48h17.47V41.2H116.76Z"/><path class="cls-2" d="M222.47,41.2l-4.4-20.75h-.2L213.46,41.2h-12l-8-34.07h11.39l3.91,19.31h.2l3.86-19.31h10.79l4.11,19.31h.2l3.66-19.31h10.9l-8,34.07Z"/><path class="cls-2" d="M300,37.83q-4.41,3.66-12.53,3.66T275,37.83q-4.43-3.66-4.43-10.64V6.84h10.94V27A6.58,6.58,0,0,0,283,31.62a6.64,6.64,0,0,0,8.93,0A6.53,6.53,0,0,0,293.49,27V6.84h10.94V27.19Q304.43,34.17,300,37.83Z"/><path class="cls-2" d="M339.07,9.19A8.87,8.87,0,0,1,343.38,17v.59H333.13v-.2A3.18,3.18,0,0,0,332,15a4.78,4.78,0,0,0-3.31-1,7,7,0,0,0-3.35.64,1.86,1.86,0,0,0-1.16,1.58,2.13,2.13,0,0,0,1.58,2,31.6,31.6,0,0,0,5.1,1.33,54.58,54.58,0,0,1,6.76,1.76,11.45,11.45,0,0,1,4.63,3,8,8,0,0,1,2,5.64q0,6-4.08,9c-2.73,2-6.36,2.92-10.92,2.92q-8,0-12.4-2.67t-4.43-9.46h10.34c0,1.72.45,2.87,1.34,3.44a7.79,7.79,0,0,0,4.16.87,11.12,11.12,0,0,0,3.44-.45,1.77,1.77,0,0,0,1.36-1.83c0-.82-.5-1.44-1.51-1.86a31.12,31.12,0,0,0-4.92-1.31,56.6,56.6,0,0,1-6.89-1.85,11.64,11.64,0,0,1-4.75-3.2,8.64,8.64,0,0,1-2-6q0-5.6,4.33-8.24a20.7,20.7,0,0,1,11-2.65A19.79,19.79,0,0,1,339.07,9.19Z"/><circle class="cls-3" cx="56.84" cy="24.35" r="16.51"/><rect class="cls-4" x="47.85" y="25.18" width="19.32" height="9.57" rx="0.49" transform="matrix(1, -0.1, 0.1, 1, -2.7, 5.88)"/><path class="cls-5" d="M41.35,21.94c2.06,1.62,4.47,3,6.54,4.62l3.19,1.81-2,6.46a.25.25,0,0,1-.4.11c-1.93-1.64-3.81-3.29-5.76-4.95l-.28-.23a9.35,9.35,0,0,1-1.28-7.82Z"/><path class="cls-5" d="M71.62,27.06l-4.48,6a.25.25,0,0,1-.42,0l-3.34-5,2.84-3,5-6.24a9.24,9.24,0,0,1,1.22,4.61,9.36,9.36,0,0,1-.64,3.41Z"/><ellipse class="cls-4" cx="51.61" cy="20.79" rx="1.92" ry="2.93" transform="translate(-2.52 7.9) rotate(-8.54)"/><path class="cls-6" d="M62,17.36l-3.3,3a.29.29,0,0,0,.17.5l4.77.26"/><circle class="cls-7" cx="56.77" cy="24.17" r="16.7"/><circle class="cls-3" cx="169.4" cy="24.35" r="16.51"/><rect class="cls-4" x="160.41" y="25.18" width="19.32" height="9.57" rx="0.49" transform="translate(-2.14 17.1) rotate(-5.72)"/><path class="cls-5" d="M153.91,21.94c2.06,1.62,4.47,3,6.53,4.62l3.2,1.81-2,6.46a.26.26,0,0,1-.41.11c-1.93-1.64-3.8-3.29-5.76-4.95l-.28-.23a9.27,9.27,0,0,1-1.37-3.12A9.1,9.1,0,0,1,153.91,21.94Z"/><path class="cls-5" d="M184.17,27.06l-4.47,6a.26.26,0,0,1-.43,0l-3.33-5,2.84-3,5-6.24A9.24,9.24,0,0,1,185,23.36a9.36,9.36,0,0,1-.64,3.41Z"/><ellipse class="cls-4" cx="164.17" cy="20.79" rx="1.92" ry="2.93" transform="translate(-1.27 24.62) rotate(-8.54)"/><path class="cls-6" d="M174.59,17.36l-3.3,3a.29.29,0,0,0,.18.5l4.76.26"/><circle class="cls-7" cx="169.32" cy="24.17" r="16.7"/></g></svg>