<svg xmlns="http://www.w3.org/2000/svg" viewBox="0 0 100 100"><defs><style>.cls-1{fill:#f1bf64;}.cls-2{fill:#3c82bf;}.cls-3,.cls-4,.cls-5{fill:none;stroke:#3c82bf;stroke-miterlimit:10;}.cls-3{stroke-width:3.55px;}.cls-4,.cls-5{stroke-linecap:round;}.cls-4{stroke-width:3.16px;}.cls-5{stroke-width:2.76px;}.cls-6{font-size:11.18px;fill:#fff;font-family:ArchivoBlack-Regular, Archivo Black;letter-spacing:0em;}.cls-7{letter-spacing:-0.04em;}.cls-8{letter-spacing:-0.02em;}</style></defs><g id="Layer_5" data-name="Layer 5"><circle class="cls-1" cx="50" cy="50" r="48.19"/><rect class="cls-2" x="23.21" y="53.07" width="57.55" height="28.5" rx="1.45" transform="translate(-6.45 5.52) rotate(-5.72)"/><path class="cls-3" d="M3.86,43C10,47.85,17.18,52,23.32,56.78l9.53,5.39-6,19.26a.75.75,0,0,1-1.2.31C19.9,76.86,14.32,72,8.49,67l-.83-.7A27.81,27.81,0,0,1,3.56,57,27.41,27.41,0,0,1,3.86,43Z"/><path class="cls-3" d="M50,3.07a47.2,47.2,0,1,0,47.2,47.2A47.2,47.2,0,0,0,50,3.07Zm44,56L80.69,76.91a.77.77,0,0,1-1.27,0L69.49,62,78,52.9,93,34.31A27.48,27.48,0,0,1,96.57,48a27.78,27.78,0,0,1-1.89,10.14Z"/><ellipse class="cls-2" cx="34.42" cy="40.38" rx="5.72" ry="8.73" transform="translate(-5.62 5.56) rotate(-8.54)"/><path class="cls-4" d="M65.49,30.18l-9.85,8.88a.87.87,0,0,0,.53,1.5l14.19.79"/><path class="cls-5" d="M53,25.34a8.67,8.67,0,0,1,5.25-4.82c2-.52,4.49-.65,7.59,2.79"/><path class="cls-5" d="M24.62,24.91a8.65,8.65,0,0,1,4.17-5.77c1.85-.91,4.27-1.55,8,1.21"/><text class="cls-6" transform="matrix(1, -0.1, 0.1, 1, 28.37, 67.22)">C<tspan class="cls-7" x="8.72" y="0">O</tspan><tspan x="17.58" y="0">VER </tspan><tspan x="-2.94" y="12.5">CHA</tspan><tspan class="cls-8" x="23.85" y="12.5">R</tspan><tspan x="32.37" y="12.5">GE</tspan></text></g></svg>